<svg height="4366" width="720" xmlns="http://www.w3.org/2000/svg">
<rect height="4366" fill="#555" width="720"></rect>
<text fill="#7f7" font-family="Courier New" font-size="12" xml:space="preserve">
<tspan x="10" y="26">25 megabytes installed</tspan>
<tspan x="10" y="42"></tspan>
<tspan x="10" y="58">node_modules</tspan>
<tspan x="10" y="74">└─┬ npmi@2.0.1 </tspan>
<tspan x="10" y="90">  ├─┬ npm@3.10.10 </tspan>
<tspan x="10" y="106">  │ ├── abbrev@1.0.9 </tspan>
<tspan x="10" y="122">  │ ├── ansi-regex@2.0.0 </tspan>
<tspan x="10" y="138">  │ ├── ansicolors@0.3.2 </tspan>
<tspan x="10" y="154">  │ ├── ansistyles@0.1.3 </tspan>
<tspan x="10" y="170">  │ ├── aproba@1.0.4 </tspan>
<tspan x="10" y="186">  │ ├── archy@1.0.0 </tspan>
<tspan x="10" y="202">  │ ├── asap@2.0.5 </tspan>
<tspan x="10" y="218">  │ ├── chownr@1.0.1 </tspan>
<tspan x="10" y="234">  │ ├── cmd-shim@2.0.2 </tspan>
<tspan x="10" y="250">  │ ├─┬ columnify@1.5.4 </tspan>
<tspan x="10" y="266">  │ │ └─┬ wcwidth@1.0.0 </tspan>
<tspan x="10" y="282">  │ │   └─┬ defaults@1.0.3 </tspan>
<tspan x="10" y="298">  │ │     └── clone@1.0.2 </tspan>
<tspan x="10" y="314">  │ ├─┬ config-chain@1.1.11 </tspan>
<tspan x="10" y="330">  │ │ └── proto-list@1.2.4 </tspan>
<tspan x="10" y="346">  │ ├── debuglog@1.0.1 </tspan>
<tspan x="10" y="362">  │ ├── dezalgo@1.0.3 </tspan>
<tspan x="10" y="378">  │ ├── editor@1.0.0 </tspan>
<tspan x="10" y="394">  │ ├── fs-vacuum@1.2.9 </tspan>
<tspan x="10" y="410">  │ ├── fs-write-stream-atomic@1.0.8 </tspan>
<tspan x="10" y="426">  │ ├── fstream@1.0.10 </tspan>
<tspan x="10" y="442">  │ ├─┬ fstream-npm@1.2.0 </tspan>
<tspan x="10" y="458">  │ │ └─┬ fstream-ignore@1.0.5 </tspan>
<tspan x="10" y="474">  │ │   └─┬ minimatch@3.0.3 </tspan>
<tspan x="10" y="490">  │ │     └─┬ brace-expansion@1.1.6 </tspan>
<tspan x="10" y="506">  │ │       ├── balanced-match@0.4.2 </tspan>
<tspan x="10" y="522">  │ │       └── concat-map@0.0.1 </tspan>
<tspan x="10" y="538">  │ ├─┬ glob@7.1.0 </tspan>
<tspan x="10" y="554">  │ │ ├── fs.realpath@1.0.0 </tspan>
<tspan x="10" y="570">  │ │ ├─┬ minimatch@3.0.3 </tspan>
<tspan x="10" y="586">  │ │ │ └─┬ brace-expansion@1.1.6 </tspan>
<tspan x="10" y="602">  │ │ │   ├── balanced-match@0.4.2 </tspan>
<tspan x="10" y="618">  │ │ │   └── concat-map@0.0.1 </tspan>
<tspan x="10" y="634">  │ │ └── path-is-absolute@1.0.1 </tspan>
<tspan x="10" y="650">  │ ├── graceful-fs@4.1.9 </tspan>
<tspan x="10" y="666">  │ ├── has-unicode@2.0.1 </tspan>
<tspan x="10" y="682">  │ ├── hosted-git-info@2.1.5 </tspan>
<tspan x="10" y="698">  │ ├── iferr@0.1.5 </tspan>
<tspan x="10" y="714">  │ ├── imurmurhash@0.1.4 </tspan>
<tspan x="10" y="730">  │ ├── inflight@1.0.5 </tspan>
<tspan x="10" y="746">  │ ├── inherits@2.0.3 </tspan>
<tspan x="10" y="762">  │ ├── ini@1.3.4 </tspan>
<tspan x="10" y="778">  │ ├─┬ init-package-json@1.9.4 </tspan>
<tspan x="10" y="794">  │ │ ├─┬ glob@6.0.4 </tspan>
<tspan x="10" y="810">  │ │ │ ├─┬ minimatch@3.0.3 </tspan>
<tspan x="10" y="826">  │ │ │ │ └─┬ brace-expansion@1.1.6 </tspan>
<tspan x="10" y="842">  │ │ │ │   ├── balanced-match@0.4.2 </tspan>
<tspan x="10" y="858">  │ │ │ │   └── concat-map@0.0.1 </tspan>
<tspan x="10" y="874">  │ │ │ └── path-is-absolute@1.0.0 </tspan>
<tspan x="10" y="890">  │ │ └── promzard@0.3.0 </tspan>
<tspan x="10" y="906">  │ ├── lockfile@1.0.2 </tspan>
<tspan x="10" y="922">  │ ├── lodash._baseindexof@3.1.0 </tspan>
<tspan x="10" y="938">  │ ├─┬ lodash._baseuniq@4.6.0 </tspan>
<tspan x="10" y="954">  │ │ ├── lodash._createset@4.0.3 </tspan>
<tspan x="10" y="970">  │ │ └── lodash._root@3.0.1 </tspan>
<tspan x="10" y="986">  │ ├── lodash._bindcallback@3.0.1 </tspan>
<tspan x="10" y="1002">  │ ├── lodash._cacheindexof@3.0.2 </tspan>
<tspan x="10" y="1018">  │ ├── lodash._createcache@3.1.2 </tspan>
<tspan x="10" y="1034">  │ ├── lodash._getnative@3.9.1 </tspan>
<tspan x="10" y="1050">  │ ├── lodash.clonedeep@4.5.0 </tspan>
<tspan x="10" y="1066">  │ ├── lodash.restparam@3.6.1 </tspan>
<tspan x="10" y="1082">  │ ├── lodash.union@4.6.0 </tspan>
<tspan x="10" y="1098">  │ ├── lodash.uniq@4.5.0 </tspan>
<tspan x="10" y="1114">  │ ├── lodash.without@4.4.0 </tspan>
<tspan x="10" y="1130">  │ ├─┬ mkdirp@0.5.1 </tspan>
<tspan x="10" y="1146">  │ │ └── minimist@0.0.8 </tspan>
<tspan x="10" y="1162">  │ ├─┬ node-gyp@3.4.0 </tspan>
<tspan x="10" y="1178">  │ │ ├─┬ minimatch@3.0.3 </tspan>
<tspan x="10" y="1194">  │ │ │ └─┬ brace-expansion@1.1.6 </tspan>
<tspan x="10" y="1210">  │ │ │   ├── balanced-match@0.4.2 </tspan>
<tspan x="10" y="1226">  │ │ │   └── concat-map@0.0.1 </tspan>
<tspan x="10" y="1242">  │ │ ├─┬ npmlog@3.1.2 </tspan>
<tspan x="10" y="1258">  │ │ │ ├─┬ are-we-there-yet@1.1.2 </tspan>
<tspan x="10" y="1274">  │ │ │ │ └── delegates@1.0.0 </tspan>
<tspan x="10" y="1290">  │ │ │ ├── console-control-strings@1.1.0 </tspan>
<tspan x="10" y="1306">  │ │ │ ├─┬ gauge@2.6.0 </tspan>
<tspan x="10" y="1322">  │ │ │ │ ├── has-color@0.1.7 </tspan>
<tspan x="10" y="1338">  │ │ │ │ ├── object-assign@4.1.0 </tspan>
<tspan x="10" y="1354">  │ │ │ │ ├── signal-exit@3.0.0 </tspan>
<tspan x="10" y="1370">  │ │ │ │ ├─┬ string-width@1.0.2 </tspan>
<tspan x="10" y="1386">  │ │ │ │ │ ├─┬ code-point-at@1.0.0 </tspan>
<tspan x="10" y="1402">  │ │ │ │ │ │ └── number-is-nan@1.0.0 </tspan>
<tspan x="10" y="1418">  │ │ │ │ │ └─┬ is-fullwidth-code-point@1.0.0 </tspan>
<tspan x="10" y="1434">  │ │ │ │ │   └── number-is-nan@1.0.0 </tspan>
<tspan x="10" y="1450">  │ │ │ │ └── wide-align@1.1.0 </tspan>
<tspan x="10" y="1466">  │ │ │ └── set-blocking@2.0.0 </tspan>
<tspan x="10" y="1482">  │ │ └─┬ path-array@1.0.1 </tspan>
<tspan x="10" y="1498">  │ │   └─┬ array-index@1.0.0 </tspan>
<tspan x="10" y="1514">  │ │     ├─┬ debug@2.2.0 </tspan>
<tspan x="10" y="1530">  │ │     │ └── ms@0.7.1 </tspan>
<tspan x="10" y="1546">  │ │     └─┬ es6-symbol@3.1.0 </tspan>
<tspan x="10" y="1562">  │ │       ├── d@0.1.1 </tspan>
<tspan x="10" y="1578">  │ │       └─┬ es5-ext@0.10.12 </tspan>
<tspan x="10" y="1594">  │ │         └── es6-iterator@2.0.0 </tspan>
<tspan x="10" y="1610">  │ ├── nopt@3.0.6 </tspan>
<tspan x="10" y="1626">  │ ├── normalize-git-url@3.0.2 </tspan>
<tspan x="10" y="1642">  │ ├─┬ normalize-package-data@2.3.5 </tspan>
<tspan x="10" y="1658">  │ │ └─┬ is-builtin-module@1.0.0 </tspan>
<tspan x="10" y="1674">  │ │   └── builtin-modules@1.1.1 </tspan>
<tspan x="10" y="1690">  │ ├── npm-cache-filename@1.0.2 </tspan>
<tspan x="10" y="1706">  │ ├── npm-install-checks@3.0.0 </tspan>
<tspan x="10" y="1722">  │ ├── npm-package-arg@4.2.0 </tspan>
<tspan x="10" y="1738">  │ ├─┬ npm-registry-client@7.2.1 </tspan>
<tspan x="10" y="1754">  │ │ ├─┬ concat-stream@1.5.2 </tspan>
<tspan x="10" y="1770">  │ │ │ ├─┬ readable-stream@2.0.6 </tspan>
<tspan x="10" y="1786">  │ │ │ │ ├── core-util-is@1.0.2 </tspan>
<tspan x="10" y="1802">  │ │ │ │ ├── isarray@1.0.0 </tspan>
<tspan x="10" y="1818">  │ │ │ │ ├── process-nextick-args@1.0.7 </tspan>
<tspan x="10" y="1834">  │ │ │ │ ├── string_decoder@0.10.31 </tspan>
<tspan x="10" y="1850">  │ │ │ │ └── util-deprecate@1.0.2 </tspan>
<tspan x="10" y="1866">  │ │ │ └── typedarray@0.0.6 </tspan>
<tspan x="10" y="1882">  │ │ ├─┬ npmlog@3.1.2 </tspan>
<tspan x="10" y="1898">  │ │ │ ├─┬ are-we-there-yet@1.1.2 </tspan>
<tspan x="10" y="1914">  │ │ │ │ └── delegates@1.0.0 </tspan>
<tspan x="10" y="1930">  │ │ │ ├── console-control-strings@1.1.0 </tspan>
<tspan x="10" y="1946">  │ │ │ ├─┬ gauge@2.6.0 </tspan>
<tspan x="10" y="1962">  │ │ │ │ ├── has-color@0.1.7 </tspan>
<tspan x="10" y="1978">  │ │ │ │ ├── object-assign@4.1.0 </tspan>
<tspan x="10" y="1994">  │ │ │ │ ├── signal-exit@3.0.0 </tspan>
<tspan x="10" y="2010">  │ │ │ │ ├─┬ string-width@1.0.2 </tspan>
<tspan x="10" y="2026">  │ │ │ │ │ ├─┬ code-point-at@1.0.0 </tspan>
<tspan x="10" y="2042">  │ │ │ │ │ │ └── number-is-nan@1.0.0 </tspan>
<tspan x="10" y="2058">  │ │ │ │ │ └─┬ is-fullwidth-code-point@1.0.0 </tspan>
<tspan x="10" y="2074">  │ │ │ │ │   └── number-is-nan@1.0.0 </tspan>
<tspan x="10" y="2090">  │ │ │ │ └── wide-align@1.1.0 </tspan>
<tspan x="10" y="2106">  │ │ │ └── set-blocking@2.0.0 </tspan>
<tspan x="10" y="2122">  │ │ └── retry@0.10.0 </tspan>
<tspan x="10" y="2138">  │ ├── npm-user-validate@0.1.5 </tspan>
<tspan x="10" y="2154">  │ ├─┬ npmlog@4.0.0 </tspan>
<tspan x="10" y="2170">  │ │ ├─┬ are-we-there-yet@1.1.2 </tspan>
<tspan x="10" y="2186">  │ │ │ └── delegates@1.0.0 </tspan>
<tspan x="10" y="2202">  │ │ ├── console-control-strings@1.1.0 </tspan>
<tspan x="10" y="2218">  │ │ ├─┬ gauge@2.6.0 </tspan>
<tspan x="10" y="2234">  │ │ │ ├── has-color@0.1.7 </tspan>
<tspan x="10" y="2250">  │ │ │ ├── object-assign@4.1.0 </tspan>
<tspan x="10" y="2266">  │ │ │ ├── signal-exit@3.0.0 </tspan>
<tspan x="10" y="2282">  │ │ │ ├─┬ string-width@1.0.2 </tspan>
<tspan x="10" y="2298">  │ │ │ │ ├─┬ code-point-at@1.0.0 </tspan>
<tspan x="10" y="2314">  │ │ │ │ │ └── number-is-nan@1.0.0 </tspan>
<tspan x="10" y="2330">  │ │ │ │ └─┬ is-fullwidth-code-point@1.0.0 </tspan>
<tspan x="10" y="2346">  │ │ │ │   └── number-is-nan@1.0.0 </tspan>
<tspan x="10" y="2362">  │ │ │ └── wide-align@1.1.0 </tspan>
<tspan x="10" y="2378">  │ │ └── set-blocking@2.0.0 </tspan>
<tspan x="10" y="2394">  │ ├── once@1.4.0 </tspan>
<tspan x="10" y="2410">  │ ├── opener@1.4.2 </tspan>
<tspan x="10" y="2426">  │ ├─┬ osenv@0.1.3 </tspan>
<tspan x="10" y="2442">  │ │ ├── os-homedir@1.0.1 </tspan>
<tspan x="10" y="2458">  │ │ └── os-tmpdir@1.0.1 </tspan>
<tspan x="10" y="2474">  │ ├── path-is-inside@1.0.2 </tspan>
<tspan x="10" y="2490">  │ ├─┬ read@1.0.7 </tspan>
<tspan x="10" y="2506">  │ │ └── mute-stream@0.0.5 </tspan>
<tspan x="10" y="2522">  │ ├── read-cmd-shim@1.0.1 </tspan>
<tspan x="10" y="2538">  │ ├─┬ read-installed@4.0.3 </tspan>
<tspan x="10" y="2554">  │ │ └── util-extend@1.0.3 </tspan>
<tspan x="10" y="2570">  │ ├─┬ read-package-json@2.0.4 </tspan>
<tspan x="10" y="2586">  │ │ ├─┬ glob@6.0.4 </tspan>
<tspan x="10" y="2602">  │ │ │ ├─┬ minimatch@3.0.3 </tspan>
<tspan x="10" y="2618">  │ │ │ │ └─┬ brace-expansion@1.1.6 </tspan>
<tspan x="10" y="2634">  │ │ │ │   ├── balanced-match@0.4.2 </tspan>
<tspan x="10" y="2650">  │ │ │ │   └── concat-map@0.0.1 </tspan>
<tspan x="10" y="2666">  │ │ │ └── path-is-absolute@1.0.0 </tspan>
<tspan x="10" y="2682">  │ │ └─┬ json-parse-helpfulerror@1.0.3 </tspan>
<tspan x="10" y="2698">  │ │   └── jju@1.3.0 </tspan>
<tspan x="10" y="2714">  │ ├── read-package-tree@5.1.5 </tspan>
<tspan x="10" y="2730">  │ ├─┬ readable-stream@2.1.5 </tspan>
<tspan x="10" y="2746">  │ │ ├── buffer-shims@1.0.0 </tspan>
<tspan x="10" y="2762">  │ │ ├── core-util-is@1.0.2 </tspan>
<tspan x="10" y="2778">  │ │ ├── isarray@1.0.0 </tspan>
<tspan x="10" y="2794">  │ │ ├── process-nextick-args@1.0.7 </tspan>
<tspan x="10" y="2810">  │ │ ├── string_decoder@0.10.31 </tspan>
<tspan x="10" y="2826">  │ │ └── util-deprecate@1.0.2 </tspan>
<tspan x="10" y="2842">  │ ├── readdir-scoped-modules@1.0.2 </tspan>
<tspan x="10" y="2858">  │ ├── realize-package-specifier@3.0.3 </tspan>
<tspan x="10" y="2874">  │ ├─┬ request@2.75.0 </tspan>
<tspan x="10" y="2890">  │ │ ├── aws-sign2@0.6.0 </tspan>
<tspan x="10" y="2906">  │ │ ├── aws4@1.4.1 </tspan>
<tspan x="10" y="2922">  │ │ ├─┬ bl@1.1.2 </tspan>
<tspan x="10" y="2938">  │ │ │ └─┬ readable-stream@2.0.6 </tspan>
<tspan x="10" y="2954">  │ │ │   ├── core-util-is@1.0.2 </tspan>
<tspan x="10" y="2970">  │ │ │   ├── isarray@1.0.0 </tspan>
<tspan x="10" y="2986">  │ │ │   ├── process-nextick-args@1.0.7 </tspan>
<tspan x="10" y="3002">  │ │ │   ├── string_decoder@0.10.31 </tspan>
<tspan x="10" y="3018">  │ │ │   └── util-deprecate@1.0.2 </tspan>
<tspan x="10" y="3034">  │ │ ├── caseless@0.11.0 </tspan>
<tspan x="10" y="3050">  │ │ ├─┬ combined-stream@1.0.5 </tspan>
<tspan x="10" y="3066">  │ │ │ └── delayed-stream@1.0.0 </tspan>
<tspan x="10" y="3082">  │ │ ├── extend@3.0.0 </tspan>
<tspan x="10" y="3098">  │ │ ├── forever-agent@0.6.1 </tspan>
<tspan x="10" y="3114">  │ │ ├─┬ form-data@2.0.0 </tspan>
<tspan x="10" y="3130">  │ │ │ └── asynckit@0.4.0 </tspan>
<tspan x="10" y="3146">  │ │ ├─┬ har-validator@2.0.6 </tspan>
<tspan x="10" y="3162">  │ │ │ ├─┬ chalk@1.1.3 </tspan>
<tspan x="10" y="3178">  │ │ │ │ ├── ansi-styles@2.2.1 </tspan>
<tspan x="10" y="3194">  │ │ │ │ ├── escape-string-regexp@1.0.5 </tspan>
<tspan x="10" y="3210">  │ │ │ │ ├── has-ansi@2.0.0 </tspan>
<tspan x="10" y="3226">  │ │ │ │ └── supports-color@2.0.0 </tspan>
<tspan x="10" y="3242">  │ │ │ ├─┬ commander@2.9.0 </tspan>
<tspan x="10" y="3258">  │ │ │ │ └── graceful-readlink@1.0.1 </tspan>
<tspan x="10" y="3274">  │ │ │ ├─┬ is-my-json-valid@2.15.0 </tspan>
<tspan x="10" y="3290">  │ │ │ │ ├── generate-function@2.0.0 </tspan>
<tspan x="10" y="3306">  │ │ │ │ ├─┬ generate-object-property@1.2.0 </tspan>
<tspan x="10" y="3322">  │ │ │ │ │ └── is-property@1.0.2 </tspan>
<tspan x="10" y="3338">  │ │ │ │ ├── jsonpointer@4.0.0 </tspan>
<tspan x="10" y="3354">  │ │ │ │ └── xtend@4.0.1 </tspan>
<tspan x="10" y="3370">  │ │ │ └─┬ pinkie-promise@2.0.1 </tspan>
<tspan x="10" y="3386">  │ │ │   └── pinkie@2.0.4 </tspan>
<tspan x="10" y="3402">  │ │ ├─┬ hawk@3.1.3 </tspan>
<tspan x="10" y="3418">  │ │ │ ├── boom@2.10.1 </tspan>
<tspan x="10" y="3434">  │ │ │ ├── cryptiles@2.0.5 </tspan>
<tspan x="10" y="3450">  │ │ │ ├── hoek@2.16.3 </tspan>
<tspan x="10" y="3466">  │ │ │ └── sntp@1.0.9 </tspan>
<tspan x="10" y="3482">  │ │ ├─┬ http-signature@1.1.1 </tspan>
<tspan x="10" y="3498">  │ │ │ ├── assert-plus@0.2.0 </tspan>
<tspan x="10" y="3514">  │ │ │ ├─┬ jsprim@1.3.1 </tspan>
<tspan x="10" y="3530">  │ │ │ │ ├── extsprintf@1.0.2 </tspan>
<tspan x="10" y="3546">  │ │ │ │ ├── json-schema@0.2.3 </tspan>
<tspan x="10" y="3562">  │ │ │ │ └── verror@1.3.6 </tspan>
<tspan x="10" y="3578">  │ │ │ └─┬ sshpk@1.10.1 </tspan>
<tspan x="10" y="3594">  │ │ │   ├── asn1@0.2.3 </tspan>
<tspan x="10" y="3610">  │ │ │   ├── assert-plus@1.0.0 </tspan>
<tspan x="10" y="3626">  │ │ │   ├── bcrypt-pbkdf@1.0.0 </tspan>
<tspan x="10" y="3642">  │ │ │   ├── dashdash@1.14.0 </tspan>
<tspan x="10" y="3658">  │ │ │   ├── ecc-jsbn@0.1.1 </tspan>
<tspan x="10" y="3674">  │ │ │   ├── getpass@0.1.6 </tspan>
<tspan x="10" y="3690">  │ │ │   ├── jodid25519@1.0.2 </tspan>
<tspan x="10" y="3706">  │ │ │   ├── jsbn@0.1.0 </tspan>
<tspan x="10" y="3722">  │ │ │   └── tweetnacl@0.14.3 </tspan>
<tspan x="10" y="3738">  │ │ ├── is-typedarray@1.0.0 </tspan>
<tspan x="10" y="3754">  │ │ ├── isstream@0.1.2 </tspan>
<tspan x="10" y="3770">  │ │ ├── json-stringify-safe@5.0.1 </tspan>
<tspan x="10" y="3786">  │ │ ├─┬ mime-types@2.1.12 </tspan>
<tspan x="10" y="3802">  │ │ │ └── mime-db@1.24.0 </tspan>
<tspan x="10" y="3818">  │ │ ├── node-uuid@1.4.7 </tspan>
<tspan x="10" y="3834">  │ │ ├── oauth-sign@0.8.2 </tspan>
<tspan x="10" y="3850">  │ │ ├── qs@6.2.1 </tspan>
<tspan x="10" y="3866">  │ │ ├── stringstream@0.0.5 </tspan>
<tspan x="10" y="3882">  │ │ ├── tough-cookie@2.3.1 </tspan>
<tspan x="10" y="3898">  │ │ └── tunnel-agent@0.4.3 </tspan>
<tspan x="10" y="3914">  │ ├── retry@0.10.0 </tspan>
<tspan x="10" y="3930">  │ ├── rimraf@2.5.4 </tspan>
<tspan x="10" y="3946">  │ ├── semver@5.3.0 </tspan>
<tspan x="10" y="3962">  │ ├── sha@2.0.1 </tspan>
<tspan x="10" y="3978">  │ ├── slide@1.1.6 </tspan>
<tspan x="10" y="3994">  │ ├── sorted-object@2.0.1 </tspan>
<tspan x="10" y="4010">  │ ├── strip-ansi@3.0.1 </tspan>
<tspan x="10" y="4026">  │ ├─┬ tar@2.2.1 </tspan>
<tspan x="10" y="4042">  │ │ └── block-stream@0.0.8 </tspan>
<tspan x="10" y="4058">  │ ├── text-table@0.2.0 </tspan>
<tspan x="10" y="4074">  │ ├── uid-number@0.0.6 </tspan>
<tspan x="10" y="4090">  │ ├── umask@1.1.0 </tspan>
<tspan x="10" y="4106">  │ ├─┬ unique-filename@1.1.0 </tspan>
<tspan x="10" y="4122">  │ │ └── unique-slug@2.0.0 </tspan>
<tspan x="10" y="4138">  │ ├── unpipe@1.0.0 </tspan>
<tspan x="10" y="4154">  │ ├─┬ validate-npm-package-license@3.0.1 </tspan>
<tspan x="10" y="4170">  │ │ ├─┬ spdx-correct@1.0.2 </tspan>
<tspan x="10" y="4186">  │ │ │ └── spdx-license-ids@1.2.0 </tspan>
<tspan x="10" y="4202">  │ │ └─┬ spdx-expression-parse@1.0.2 </tspan>
<tspan x="10" y="4218">  │ │   ├── spdx-exceptions@1.0.4 </tspan>
<tspan x="10" y="4234">  │ │   └── spdx-license-ids@1.2.0 </tspan>
<tspan x="10" y="4250">  │ ├─┬ validate-npm-package-name@2.2.2 </tspan>
<tspan x="10" y="4266">  │ │ └── builtins@0.0.7 </tspan>
<tspan x="10" y="4282">  │ ├─┬ which@1.2.11 </tspan>
<tspan x="10" y="4298">  │ │ └── isexe@1.1.2 </tspan>
<tspan x="10" y="4314">  │ ├── wrappy@1.0.2 </tspan>
<tspan x="10" y="4330">  │ └── write-file-atomic@1.2.0 </tspan>
<tspan x="10" y="4346">  └── semver@4.3.6</tspan>
</text>
</svg>
